<svg width="32" height="32" viewBox="0 0 32 32" fill="none" xmlns="http://www.w3.org/2000/svg">
<path fill-rule="evenodd" clip-rule="evenodd" d="M30.488 4.66667C30.2499 4.25414 29.8097 4 29.3333 4H2.66667C2.13882 4 1.66066 4.3114 1.44721 4.79417C1.23376 5.27694 1.32521 5.84018 1.68044 6.23062L8.64044 13.8806C9.00915 14.2859 9.58824 14.4243 10.1004 14.2297L19.7667 10.5557C19.8792 10.513 19.9302 10.5306 19.9525 10.5395C19.9914 10.555 20.0472 10.5952 20.091 10.6694C20.1349 10.7436 20.1431 10.8119 20.1379 10.8535C20.1349 10.8773 20.1257 10.9305 20.0339 11.0084L12.0975 17.7398C11.6886 18.0867 11.5272 18.6449 11.688 19.1565L14.728 28.8265C14.8867 29.3311 15.3285 29.6942 15.8543 29.752C16.38 29.8098 16.8902 29.5514 17.1547 29.0933L30.488 6.00001C30.7262 5.58748 30.7262 5.07921 30.488 4.66667Z" fill="#FE2C55"/>
</svg>
